# This file uses centimeters as units for non-parametric coordinates.

mtllib Coffee_table.mtl
g default
v -4.500000 3.847587 2.750000
v 4.500000 3.847587 2.750000
v -4.500000 4.470590 2.750000
v 4.500000 4.470590 2.750000
v -4.500000 4.470590 -2.750000
v 4.500000 4.470590 -2.750000
v -4.500000 3.847587 -2.750000
v 4.500000 3.847587 -2.750000
v -3.913076 4.470590 2.750000
v -3.913076 4.470590 -2.750000
v -3.913076 3.847587 -2.750000
v -3.913076 3.847587 2.750000
v -3.913076 4.470590 2.195786
v -4.500000 4.470590 2.195786
v -4.500000 3.847587 2.195786
v -3.913076 3.847587 2.195786
v 4.500000 3.847587 2.195786
v 4.500000 4.470590 2.195786
v -3.913076 4.470590 -2.196764
v -4.500000 4.470590 -2.196764
v -4.500000 3.847587 -2.196764
v -3.913076 3.847587 -2.196764
v 4.500000 3.847587 -2.196764
v 4.500000 4.470590 -2.196764
v 3.910633 4.470590 -2.196764
v 3.910633 4.470590 2.195786
v 3.910633 4.470590 2.750000
v 3.910633 3.847587 2.750000
v 3.910633 3.847587 2.195786
v 3.910633 3.847587 -2.196764
v 3.910633 3.847587 -2.750000
v 3.910633 4.470590 -2.750000
v -4.500000 -0.029410 2.195786
v -3.913076 -0.029410 2.195786
v -3.913076 -0.029410 2.750000
v -4.500000 -0.029410 2.750000
v 3.910633 -0.029410 2.750000
v 3.910633 -0.029410 2.195786
v 4.500000 -0.029410 2.195786
v 4.500000 -0.029410 2.750000
v -4.500000 -0.029410 -2.750000
v -3.913076 -0.029410 -2.750000
v -3.913076 -0.029410 -2.196764
v -4.500000 -0.029410 -2.196764
v 3.910633 -0.029410 -2.196764
v 4.500000 -0.029410 -2.196764
v 3.910633 -0.029410 -2.750000
v 4.500000 -0.029410 -2.750000
v -4.300381 2.051558 2.628011
v 4.300381 2.051558 2.628011
v -4.300381 2.142983 2.628011
v 4.300381 2.142983 2.628011
v -4.300381 2.142983 -2.628011
v 4.300381 2.142983 -2.628011
v -4.300381 2.051558 -2.628011
v 4.300381 2.051558 -2.628011
vt 0.375000 0.000000
vt 0.625000 0.000000
vt 0.375000 0.250000
vt 0.625000 0.250000
vt 0.375000 0.500000
vt 0.625000 0.500000
vt 0.375000 0.750000
vt 0.625000 0.750000
vt 0.375000 1.000000
vt 0.625000 1.000000
vt 0.875000 0.000000
vt 0.875000 0.250000
vt 0.125000 0.000000
vt 0.125000 0.250000
vt 0.391303 0.250000
vt 0.391303 0.500000
vt 0.391303 0.750000
vt 0.391303 0.000000
vt 0.391303 1.000000
vt 0.391303 0.275192
vt 0.349808 0.250000
vt 0.375000 0.275192
vt 0.349808 0.000000
vt 0.375000 0.974808
vt 0.391303 0.974808
vt 0.625000 0.974808
vt 0.650192 0.000000
vt 0.625000 0.275192
vt 0.650192 0.250000
vt 0.391303 0.474853
vt 0.150147 0.250000
vt 0.375000 0.474853
vt 0.150147 0.000000
vt 0.375000 0.775147
vt 0.391303 0.775147
vt 0.625000 0.775147
vt 0.849853 0.000000
vt 0.625000 0.474853
vt 0.849853 0.250000
vt 0.608629 0.474853
vt 0.608629 0.275192
vt 0.608629 0.250000
vt 0.608629 0.000000
vt 0.608629 1.000000
vt 0.608629 0.974808
vt 0.608629 0.775147
vt 0.608629 0.750000
vt 0.608629 0.500000
vt 0.375000 0.974808
vt 0.391303 0.974808
vt 0.391303 1.000000
vt 0.375000 1.000000
vt 0.608629 1.000000
vt 0.608629 0.974808
vt 0.625000 0.974808
vt 0.625000 1.000000
vt 0.375000 0.750000
vt 0.391303 0.750000
vt 0.391303 0.775147
vt 0.375000 0.775147
vt 0.625000 0.775147
vt 0.608629 0.775147
vt 0.608629 0.750000
vt 0.625000 0.750000
vt 0.375000 0.000000
vt 0.625000 0.000000
vt 0.625000 0.250000
vt 0.375000 0.250000
vt 0.625000 0.500000
vt 0.375000 0.500000
vt 0.625000 0.750000
vt 0.375000 0.750000
vt 0.625000 1.000000
vt 0.375000 1.000000
vt 0.875000 0.000000
vt 0.875000 0.250000
vt 0.125000 0.000000
vt 0.125000 0.250000
vn 0.000000 0.000000 1.000000
vn 0.000000 0.000000 1.000000
vn 0.000000 0.000000 1.000000
vn 0.000000 0.000000 1.000000
vn 0.000000 1.000000 0.000000
vn 0.000000 1.000000 0.000000
vn 0.000000 1.000000 0.000000
vn 0.000000 1.000000 0.000000
vn 0.000000 0.000000 -1.000000
vn 0.000000 0.000000 -1.000000
vn 0.000000 0.000000 -1.000000
vn 0.000000 0.000000 -1.000000
vn 0.000000 -1.000000 0.000000
vn 0.000000 -1.000000 0.000000
vn 0.000000 -1.000000 0.000000
vn 0.000000 -1.000000 0.000000
vn 1.000000 0.000000 0.000000
vn 1.000000 0.000000 0.000000
vn 1.000000 0.000000 0.000000
vn 1.000000 0.000000 0.000000
vn -1.000000 0.000000 0.000000
vn -1.000000 0.000000 0.000000
vn -1.000000 0.000000 0.000000
vn -1.000000 0.000000 0.000000
vn 0.000000 1.000000 0.000000
vn 0.000000 1.000000 0.000000
vn 0.000000 1.000000 0.000000
vn 0.000000 1.000000 0.000000
vn 0.000000 0.000000 -1.000000
vn 0.000000 0.000000 -1.000000
vn 0.000000 0.000000 -1.000000
vn 0.000000 0.000000 -1.000000
vn 0.000000 -1.000000 0.000000
vn 0.000000 -1.000000 0.000000
vn 0.000000 -1.000000 0.000000
vn 0.000000 -1.000000 0.000000
vn 0.000000 0.000000 1.000000
vn 0.000000 0.000000 1.000000
vn 0.000000 0.000000 1.000000
vn 0.000000 0.000000 1.000000
vn 0.000000 1.000000 0.000000
vn 0.000000 1.000000 0.000000
vn -1.000000 0.000000 0.000000
vn -1.000000 0.000000 0.000000
vn 0.000000 -1.000000 0.000000
vn 0.000000 -1.000000 0.000000
vn 0.000000 -1.000000 0.000000
vn 0.000000 -1.000000 0.000000
vn 0.000000 -1.000000 0.000000
vn 0.000000 -1.000000 0.000000
vn 0.000000 -1.000000 0.000000
vn 0.000000 -1.000000 0.000000
vn 1.000000 0.000000 0.000000
vn 1.000000 0.000000 0.000000
vn 0.000000 1.000000 0.000000
vn 0.000000 1.000000 0.000000
vn 0.000000 1.000000 0.000000
vn 0.000000 1.000000 0.000000
vn -1.000000 0.000000 0.000000
vn -1.000000 0.000000 0.000000
vn 0.000000 -1.000000 0.000000
vn 0.000000 -1.000000 0.000000
vn 0.000000 -1.000000 0.000000
vn 0.000000 -1.000000 0.000000
vn 0.000000 -1.000000 0.000000
vn 0.000000 -1.000000 0.000000
vn 0.000000 -1.000000 0.000000
vn 0.000000 -1.000000 0.000000
vn 1.000000 0.000000 0.000000
vn 1.000000 0.000000 0.000000
vn 0.000000 1.000000 0.000000
vn 0.000000 1.000000 0.000000
vn 0.000000 -1.000000 0.000000
vn 0.000000 -1.000000 0.000000
vn 0.000000 -1.000000 0.000000
vn 0.000000 -1.000000 0.000000
vn 0.000000 0.000000 -1.000000
vn 0.000000 0.000000 -1.000000
vn 0.000000 0.000000 -1.000000
vn 0.000000 0.000000 -1.000000
vn 1.000000 0.000000 0.000000
vn 1.000000 0.000000 0.000000
vn 1.000000 0.000000 0.000000
vn 1.000000 0.000000 0.000000
vn 0.000000 0.000000 1.000000
vn 0.000000 0.000000 1.000000
vn 0.000000 0.000000 1.000000
vn 0.000000 0.000000 1.000000
vn -1.000000 0.000000 0.000000
vn -1.000000 0.000000 0.000000
vn -1.000000 0.000000 0.000000
vn -1.000000 0.000000 0.000000
vn -1.000000 0.000000 0.000000
vn -1.000000 0.000000 0.000000
vn -1.000000 0.000000 0.000000
vn -1.000000 0.000000 0.000000
vn 0.000000 0.000000 -1.000000
vn 0.000000 0.000000 -1.000000
vn 0.000000 0.000000 -1.000000
vn 0.000000 0.000000 -1.000000
vn 1.000000 0.000000 0.000000
vn 1.000000 0.000000 0.000000
vn 1.000000 0.000000 0.000000
vn 1.000000 0.000000 0.000000
vn 0.000000 0.000000 1.000000
vn 0.000000 0.000000 1.000000
vn 0.000000 0.000000 1.000000
vn 0.000000 0.000000 1.000000
vn 0.000000 0.000000 -1.000000
vn 0.000000 0.000000 -1.000000
vn 0.000000 0.000000 -1.000000
vn 0.000000 0.000000 -1.000000
vn 1.000000 0.000000 0.000000
vn 1.000000 0.000000 0.000000
vn 1.000000 0.000000 0.000000
vn 1.000000 0.000000 0.000000
vn 0.000000 0.000000 1.000000
vn 0.000000 0.000000 1.000000
vn 0.000000 0.000000 1.000000
vn 0.000000 0.000000 1.000000
vn -1.000000 0.000000 0.000000
vn -1.000000 0.000000 0.000000
vn -1.000000 0.000000 0.000000
vn -1.000000 0.000000 0.000000
vn 0.000000 0.000000 1.000000
vn 0.000000 0.000000 1.000000
vn 0.000000 0.000000 1.000000
vn 0.000000 0.000000 1.000000
vn -1.000000 0.000000 0.000000
vn -1.000000 0.000000 0.000000
vn -1.000000 0.000000 0.000000
vn -1.000000 0.000000 0.000000
vn 0.000000 0.000000 -1.000000
vn 0.000000 0.000000 -1.000000
vn 0.000000 0.000000 -1.000000
vn 0.000000 0.000000 -1.000000
vn 1.000000 0.000000 0.000000
vn 1.000000 0.000000 0.000000
vn 1.000000 0.000000 0.000000
vn 1.000000 0.000000 0.000000
vn 0.000000 0.000000 1.000000
vn 0.000000 0.000000 1.000000
vn 0.000000 0.000000 1.000000
vn 0.000000 0.000000 1.000000
vn 0.000000 1.000000 0.000000
vn 0.000000 1.000000 0.000000
vn 0.000000 1.000000 0.000000
vn 0.000000 1.000000 0.000000
vn 0.000000 0.000000 -1.000000
vn 0.000000 0.000000 -1.000000
vn 0.000000 0.000000 -1.000000
vn 0.000000 0.000000 -1.000000
vn 0.000000 -1.000000 0.000000
vn 0.000000 -1.000000 0.000000
vn 0.000000 -1.000000 0.000000
vn 0.000000 -1.000000 0.000000
vn 1.000000 0.000000 0.000000
vn 1.000000 0.000000 0.000000
vn 1.000000 0.000000 0.000000
vn 1.000000 0.000000 0.000000
vn -1.000000 0.000000 0.000000
vn -1.000000 0.000000 0.000000
vn -1.000000 0.000000 0.000000
vn -1.000000 0.000000 0.000000
s 1
g pCube52
usemtl lambert19SG
f 1/1/1 12/18/2 9/15/3 3/3/4
s 2
f 3/3/5 9/15/6 13/20/7 14/22/8
s 3
f 5/5/9 10/16/10 11/17/11 7/7/12
s off
f 33/49/13 34/50/14 35/51/15 36/52/16
s 4
f 2/2/17 17/27/18 18/29/19 4/4/20
s 5
f 15/23/21 1/1/22 3/3/23 14/21/24
s 2
f 27/42/25 4/4/26 18/28/27 26/41/28
s 3
f 31/47/29 32/48/30 6/6/31 8/8/32
s off
f 37/53/33 38/54/34 39/55/35 40/56/36
s 1
f 27/42/37 28/43/38 2/2/39 4/4/40
s 2
f 14/22/8 13/20/7 19/30/41 20/32/42
s 5
f 21/33/43 15/23/21 14/21/24 20/31/44
s 7
f 21/34/45 22/35/46 16/25/47 15/24/48
f 17/26/49 29/45/50 30/46/51 23/36/52
s 4
f 18/29/19 17/27/18 23/37/53 24/39/54
s 2
f 26/41/28 18/28/27 24/38/55 25/40/56
f 20/32/42 19/30/41 10/16/57 5/5/58
s 5
f 7/13/59 21/33/43 20/31/44 5/14/60
s off
f 41/57/61 42/58/62 43/59/63 44/60/64
f 46/61/65 45/62/66 47/63/67 48/64/68
s 4
f 24/39/54 23/37/53 8/11/69 6/12/70
s 2
f 32/48/71 25/40/56 24/38/55 6/6/72
f 13/20/7 26/41/28 25/40/56 19/30/41
f 9/15/6 27/42/25 26/41/28 13/20/7
s 1
f 9/15/3 12/18/2 28/43/38 27/42/37
s 7
f 12/19/73 16/25/47 29/45/50 28/44/74
f 30/46/51 29/45/50 16/25/47 22/35/46
f 31/47/75 30/46/51 22/35/46 11/17/76
s 3
f 11/17/11 10/16/10 32/48/30 31/47/29
s 2
f 19/30/41 25/40/56 32/48/71 10/16/57
s off
f 15/24/77 16/25/78 34/50/79 33/49/80
f 16/25/81 12/19/82 35/51/83 34/50/84
f 12/19/85 1/9/86 36/52/87 35/51/88
f 1/9/89 15/24/90 33/49/91 36/52/92
f 28/44/93 29/45/94 38/54/95 37/53/96
f 29/45/97 17/26/98 39/55/99 38/54/100
f 17/26/101 2/10/102 40/56/103 39/55/104
f 2/10/105 28/44/106 37/53/107 40/56/108
f 7/7/109 11/17/110 42/58/111 41/57/112
f 11/17/113 22/35/114 43/59/115 42/58/116
f 22/35/117 21/34/118 44/60/119 43/59/120
f 21/34/121 7/7/122 41/57/123 44/60/124
f 23/36/125 30/46/126 45/62/127 46/61/128
f 30/46/129 31/47/130 47/63/131 45/62/132
f 31/47/133 8/8/134 48/64/135 47/63/136
f 8/8/137 23/36/138 46/61/139 48/64/140
f 49/65/141 50/66/142 52/67/143 51/68/144
f 51/68/145 52/67/146 54/69/147 53/70/148
f 53/70/149 54/69/150 56/71/151 55/72/152
f 55/72/153 56/71/154 50/73/155 49/74/156
f 50/66/157 56/75/158 54/76/159 52/67/160
f 55/77/161 49/65/162 51/68/163 53/78/164
