# This file uses centimeters as units for non-parametric coordinates.

mtllib pictureFrameA.mtl
g default
v 10.000000 12.082532 -0.142222
v -10.000000 12.082532 -0.142222
v 10.000000 26.082531 -0.142222
v -10.000000 26.082531 -0.142222
v 10.000000 26.082531 0.142222
v -10.000000 26.082531 0.142222
v 10.000000 12.082532 0.142222
v -10.000000 12.082532 0.142222
v 9.763720 12.293470 -0.142222
v -9.763720 12.293470 -0.142222
v -9.763720 25.871593 -0.142222
v 9.763720 25.871593 -0.142222
v 9.763720 12.293470 -0.091548
v -9.763720 12.293470 -0.091548
v -9.763720 25.871593 -0.091548
v 9.763720 25.871593 -0.091548
vt 0.375088 0.040679
vt 0.396385 0.040679
vt 0.375088 0.061976
vt 0.396385 0.061976
vt 0.375088 0.083274
vt 0.396385 0.083274
vt 0.375088 0.104571
vt 0.396385 0.104571
vt 0.375088 0.125869
vt 0.396385 0.125869
vt 0.417683 0.040679
vt 0.417683 0.061976
vt 0.353790 0.040679
vt 0.353790 0.061976
vt 0.375088 0.040679
vt 0.396385 0.040679
vt 0.396385 0.061976
vt 0.375088 0.061976
vt 0.375088 0.040679
vt 0.396385 0.040679
vt 0.396385 0.061976
vt 0.375088 0.061976
vt 0.019821 0.192480
vt 0.979139 0.192480
vt 0.979139 0.815029
vt 0.019821 0.815029
vn 0.000000 0.000000 -1.000000
vn 0.000000 0.000000 -1.000000
vn 0.000000 0.000000 -1.000000
vn 0.000000 0.000000 -1.000000
vn 0.000000 1.000000 0.000000
vn 0.000000 1.000000 0.000000
vn 0.000000 1.000000 0.000000
vn 0.000000 1.000000 0.000000
vn 0.000000 -1.000000 0.000000
vn 0.000000 -1.000000 0.000000
vn 0.000000 -1.000000 0.000000
vn 0.000000 -1.000000 0.000000
vn -1.000000 0.000000 0.000000
vn -1.000000 0.000000 0.000000
vn -1.000000 0.000000 0.000000
vn -1.000000 0.000000 0.000000
vn 1.000000 0.000000 0.000000
vn 1.000000 0.000000 0.000000
vn 1.000000 0.000000 0.000000
vn 1.000000 0.000000 0.000000
vn 0.000000 0.000000 -1.000000
vn 0.000000 0.000000 -1.000000
vn 0.000000 0.000000 -1.000000
vn 0.000000 0.000000 -1.000000
vn 0.000000 0.000000 -1.000000
vn 0.000000 0.000000 -1.000000
vn 0.000000 0.000000 -1.000000
vn 0.000000 0.000000 -1.000000
vn 0.000000 0.000000 -1.000000
vn 0.000000 0.000000 -1.000000
vn 0.000000 0.000000 -1.000000
vn 0.000000 0.000000 -1.000000
vn -0.000000 0.000000 -1.000000
vn -0.000000 0.000000 -1.000000
vn -0.000000 0.000000 -1.000000
vn -0.000000 0.000000 -1.000000
vn 0.000000 1.000000 0.000000
vn 0.000000 1.000000 0.000000
vn 0.000000 1.000000 0.000000
vn 0.000000 1.000000 0.000000
vn 1.000000 0.000000 0.000000
vn 1.000000 0.000000 0.000000
vn 1.000000 0.000000 0.000000
vn 1.000000 0.000000 0.000000
vn 0.000000 -1.000000 0.000000
vn 0.000000 -1.000000 0.000000
vn 0.000000 -1.000000 0.000000
vn 0.000000 -1.000000 0.000000
vn -1.000000 0.000000 0.000000
vn -1.000000 0.000000 0.000000
vn -1.000000 0.000000 0.000000
vn -1.000000 0.000000 0.000000
s off
g pCube22
usemtl lambert13SG
f 13/23/1 14/24/2 15/25/3 16/26/4
f 3/3/5 4/4/6 6/6/7 5/5/8
f 7/7/9 8/8/10 2/10/11 1/9/12
f 2/2/13 8/11/14 6/12/15 4/4/16
f 7/13/17 1/1/18 3/3/19 5/14/20
f 1/1/21 2/2/22 10/16/23 9/15/24
f 2/2/25 4/4/26 11/17/27 10/16/28
f 4/4/29 3/3/30 12/18/31 11/17/32
f 3/3/33 1/1/34 9/15/35 12/18/36
f 9/15/37 10/16/38 14/20/39 13/19/40
f 10/16/41 11/17/42 15/21/43 14/20/44
f 11/17/45 12/18/46 16/22/47 15/21/48
f 12/18/49 9/15/50 13/19/51 16/22/52
