# This file uses centimeters as units for non-parametric coordinates.

mtllib MOTO_Uplighter.mtl
g default
v 1.035565 17.358776 -1.035556
v -0.000000 17.358776 -1.464491
v -1.035565 17.358776 -1.035556
v -1.464502 17.358776 0.000010
v -1.035565 17.358776 1.035575
v -0.000000 17.358776 1.464510
v 1.035565 17.358776 1.035575
v 1.464502 17.358776 0.000010
v 0.096790 0.222892 0.000010
v 0.068441 0.222892 0.068451
v -0.000000 0.222892 0.096798
v -0.068441 0.222892 0.068451
v -0.096790 0.222892 0.000010
v -0.068441 0.222892 -0.068432
v -0.000000 0.222892 -0.096781
v 0.068441 0.222892 -0.068432
v 0.988414 -0.013894 -0.988413
v -0.000000 -0.013894 -1.397827
v -0.000000 0.222893 -1.397827
v 0.988414 0.222893 -0.988413
v -0.988420 -0.013894 -0.988413
v -0.988420 0.222893 -0.988413
v -1.397836 -0.013894 0.000009
v -1.397836 0.222893 0.000009
v -0.988420 -0.013894 0.988429
v -0.988420 0.222893 0.988429
v -0.000000 -0.013894 1.397843
v -0.000000 0.222893 1.397843
v 0.988414 -0.013894 0.988429
v 0.988414 0.222893 0.988429
v 1.397836 -0.013894 0.000009
v 1.397836 0.222893 0.000009
v 0.062627 15.367758 0.000010
v 0.044283 15.367758 0.044293
v -0.000000 15.367758 0.062635
v -0.044283 15.367758 0.044293
v -0.062627 15.367758 0.000010
v -0.044283 15.367758 -0.044274
v -0.000000 15.367758 -0.062617
v 0.044283 15.367758 -0.044274
v 1.342186 16.686958 0.000010
v 0.949073 16.686958 0.949083
v -0.000000 16.686958 1.342197
v -0.949073 16.686958 0.949083
v -1.342188 16.686958 0.000010
v -0.949073 16.686958 -0.949064
v -0.000000 16.686958 -1.342178
v 0.949073 16.686958 -0.949064
v 0.229180 15.736727 -0.229172
v 0.324109 15.736727 0.000010
v 0.229180 15.736727 0.229188
v -0.000000 15.736727 0.324116
v -0.229180 15.736727 0.229188
v -0.324109 15.736727 0.000010
v -0.229180 15.736727 -0.229172
v -0.000000 15.736727 -0.324098
v 0.976936 17.358776 -0.976929
v -0.000000 17.358776 -1.381582
v -0.976936 17.358776 -0.976929
v -1.381592 17.358776 0.000010
v -0.976936 17.358776 0.976948
v -0.000000 17.358776 1.381601
v 0.976936 17.358776 0.976948
v 1.381592 17.358776 0.000010
v -0.000000 16.152580 0.000010
v -0.000000 16.037884 -0.736320
v 0.520668 16.037884 -0.520662
v 0.736332 16.037884 0.000010
v 0.520668 16.037884 0.520679
v -0.000000 16.037884 0.736339
v -0.520668 16.037884 0.520679
v -0.736332 16.037884 0.000010
v -0.520668 16.037884 -0.520662
v -0.000000 16.305824 -1.082928
v 0.765756 16.305824 -0.765750
v 1.082937 16.305824 0.000010
v 0.765756 16.305824 0.765763
v -0.000000 16.305824 1.082947
v -0.765756 16.305824 0.765763
v -1.082937 16.305824 0.000010
v -0.765756 16.305824 -0.765750
v 0.060369 11.109957 0.000009
v 0.044047 11.098901 0.047604
v 0.004641 11.072211 0.067317
v -0.034766 11.045517 0.047604
v -0.051088 11.034463 0.000009
v -0.034766 11.045517 -0.047586
v 0.004641 11.072211 -0.067300
v 0.044047 11.098901 -0.047586
v -0.020420 11.232173 0.000010
v -0.037143 11.220843 0.048772
v -0.077517 11.193497 0.068969
v -0.117887 11.166152 0.048772
v -0.134611 11.154824 0.000010
v -0.117887 11.166152 -0.048753
v -0.077517 11.193497 -0.068951
v -0.037143 11.220843 -0.048753
v -0.227276 11.529390 0.000010
v -0.240854 11.514440 0.048772
v -0.273640 11.478342 0.068969
v -0.306425 11.442246 0.048772
v -0.320004 11.427294 0.000010
v -0.306425 11.442246 -0.048753
v -0.273640 11.478342 -0.068951
v -0.240854 11.514440 -0.048753
v -0.639873 11.932031 0.000010
v -0.650842 11.915071 0.048772
v -0.677327 11.874127 0.068969
v -0.703810 11.833183 0.048772
v -0.714781 11.816222 0.000010
v -0.703810 11.833183 -0.048753
v -0.677327 11.874127 -0.068951
v -0.650842 11.915071 -0.048753
v -1.104676 12.123417 0.000010
v -1.105100 12.103220 0.048772
v -1.106128 12.054470 0.068969
v -1.107158 12.005718 0.048772
v -1.107584 11.985522 0.000010
v -1.107158 12.005718 -0.048753
v -1.106128 12.054470 -0.068951
v -1.105100 12.103220 -0.048753
v -1.669317 12.021602 0.000010
v -1.657960 12.004896 0.048772
v -1.630547 11.964568 0.068969
v -1.603135 11.924243 0.048772
v -1.591780 11.907536 0.000010
v -1.603135 11.924243 -0.048753
v -1.630547 11.964568 -0.068951
v -1.657960 12.004896 -0.048753
v -2.528105 11.412089 0.000010
v -2.516748 11.395386 0.048772
v -2.489335 11.355059 0.068969
v -2.461923 11.314731 0.048772
v -2.450569 11.298028 0.000010
v -2.461923 11.314731 -0.048753
v -2.489335 11.355059 -0.068951
v -2.516748 11.395386 -0.048753
v -3.329335 10.497140 0.000010
v -3.315243 10.482666 0.048772
v -3.281226 10.447732 0.068969
v -3.247213 10.412790 0.048772
v -3.233124 10.398320 0.000010
v -3.247213 10.412790 -0.048753
v -3.281226 10.447732 -0.068951
v -3.315243 10.482666 -0.048753
v -3.577388 10.454329 0.000011
v -3.547333 10.422281 0.135006
v -3.453485 10.324712 0.220856
v -3.328907 10.198030 0.177654
v -3.268135 10.136894 0.000011
v -3.328907 10.198030 -0.177633
v -3.453485 10.324712 -0.220838
v -3.547333 10.422281 -0.134984
v -3.671756 10.454687 0.000011
v -3.634589 10.416844 0.169025
v -3.513563 10.295110 0.282871
v -3.348863 10.131189 0.230522
v -3.268029 10.051164 0.000011
v -3.348860 10.131186 -0.230501
v -3.513561 10.295111 -0.282852
v -3.634589 10.416844 -0.169003
v -3.865415 10.374445 0.000010
v -3.815694 10.324628 0.216520
v -3.658597 10.168270 0.358245
v -3.450276 9.962289 0.289165
v -3.349336 9.862851 0.000011
v -3.450275 9.962285 -0.289143
v -3.658597 10.168270 -0.358226
v -3.815694 10.324628 -0.216498
v -4.323159 9.991796 0.000010
v -4.266400 9.934925 0.247172
v -4.087063 9.756431 0.408961
v -3.849250 9.521289 0.330100
v -3.734020 9.407777 0.000012
v -3.849248 9.521285 -0.330078
v -4.087063 9.756431 -0.408941
v -4.266400 9.934925 -0.247149
v -3.566958 10.175758 0.000010
v -4.277271 9.966580 0.269465
v -4.081758 9.771987 0.445847
v -3.822495 9.515635 0.359873
v -3.696871 9.391883 0.000012
v -3.822494 9.515630 -0.359851
v -4.081758 9.771987 -0.445827
v -4.277271 9.966580 -0.269442
v -4.339149 10.028581 0.000011
vt 0.508207 0.737404
vt 0.551187 0.737404
vt 0.564559 0.825025
vt 0.517663 0.825025
vt 0.404445 0.737404
vt 0.404445 0.825025
vt 0.300683 0.737404
vt 0.291228 0.825025
vt 0.257704 0.737404
vt 0.067562 0.154871
vt 0.067562 0.209720
vt 0.076593 0.209720
vt 0.076593 0.154871
vt 0.067562 0.264569
vt 0.076593 0.264569
vt 0.067562 0.287288
vt 0.076593 0.287288
vt 0.067562 0.264569
vt 0.076593 0.264569
vt 0.067562 0.209720
vt 0.076593 0.209720
vt 0.067562 0.154871
vt 0.076593 0.154871
vt 0.067562 0.132152
vt 0.076593 0.132152
vt 0.076593 0.206330
vt 0.076593 0.204925
vt 0.907538 0.204925
vt 0.907538 0.206330
vt 0.076593 0.209720
vt 0.907538 0.209720
vt 0.076593 0.213110
vt 0.907538 0.213110
vt 0.076593 0.214514
vt 0.907538 0.214514
vt 0.076593 0.213110
vt 0.907538 0.213110
vt 0.076593 0.209720
vt 0.907538 0.209720
vt 0.076593 0.206330
vt 0.907538 0.206330
vt 0.929285 0.184906
vt 0.929285 0.192174
vt 0.929285 0.209720
vt 0.929285 0.227266
vt 0.244331 0.825025
vt 0.300683 0.737404
vt 0.291228 0.825025
vt 0.404445 0.737404
vt 0.404445 0.825025
vt 0.508207 0.737404
vt 0.517663 0.825025
vt 0.404445 0.825025
vt 0.511253 0.825025
vt 0.929285 0.234533
vt 0.929285 0.227266
vt 0.929285 0.209720
vt 0.929285 0.192174
vt 0.947035 0.169858
vt 0.947035 0.153347
vt 0.947035 0.169858
vt 0.947035 0.209720
vt 0.947035 0.249582
vt 0.297638 0.825025
vt 0.253396 0.825025
vt 0.297638 0.825025
vt 0.404445 0.825025
vt 0.511253 0.825025
vt 0.555494 0.825025
vt 0.404445 0.667709
vt 0.488165 0.687695
vt 0.461370 0.652750
vt 0.404445 0.652750
vt 0.404445 0.687695
vt 0.522843 0.687695
vt 0.484949 0.652750
vt 0.488165 0.687695
vt 0.461370 0.652750
vt 0.404445 0.687695
vt 0.404445 0.652750
vt 0.320726 0.687695
vt 0.347521 0.652750
vt 0.286048 0.687695
vt 0.323942 0.652750
vt 0.320726 0.687695
vt 0.347521 0.652750
vt 0.947035 0.209720
vt 0.947035 0.249582
vt 0.947035 0.266093
vt 0.601773 0.252207
vt 0.602982 0.269456
vt 0.596997 0.269456
vt 0.595758 0.251784
vt 0.598854 0.245063
vt 0.592768 0.244464
vt 0.595935 0.252207
vt 0.589777 0.251784
vt 0.594725 0.269456
vt 0.588538 0.269456
vt 0.595935 0.286706
vt 0.589777 0.287129
vt 0.598854 0.293851
vt 0.592768 0.294449
vt 0.601773 0.286706
vt 0.595758 0.287129
vt 0.581674 0.269456
vt 0.580668 0.251784
vt 0.578240 0.244464
vt 0.575811 0.251784
vt 0.574805 0.269456
vt 0.575811 0.287129
vt 0.578240 0.294449
vt 0.580668 0.287129
vt 0.548205 0.269456
vt 0.547392 0.251784
vt 0.545430 0.244464
vt 0.543468 0.251784
vt 0.542656 0.269456
vt 0.543468 0.287129
vt 0.545430 0.294449
vt 0.547392 0.287129
vt 0.516680 0.269456
vt 0.516649 0.251784
vt 0.516573 0.244464
vt 0.516497 0.251784
vt 0.516465 0.269456
vt 0.516497 0.287129
vt 0.516573 0.294449
vt 0.516649 0.287129
vt 0.474854 0.269456
vt 0.475696 0.251784
vt 0.477726 0.244464
vt 0.479757 0.251784
vt 0.480598 0.269456
vt 0.479757 0.287129
vt 0.477726 0.294449
vt 0.475696 0.287129
vt 0.411239 0.269456
vt 0.412080 0.251784
vt 0.414111 0.244464
vt 0.416142 0.251784
vt 0.416983 0.269456
vt 0.416142 0.287129
vt 0.414111 0.294449
vt 0.412080 0.287129
vt 0.351888 0.269456
vt 0.352932 0.251784
vt 0.355451 0.244464
vt 0.357971 0.251784
vt 0.359014 0.269456
vt 0.357971 0.287129
vt 0.355451 0.294449
vt 0.352932 0.287129
vt 0.338689 0.269456
vt 0.340351 0.232929
vt 0.345541 0.209699
vt 0.352431 0.221389
vt 0.355792 0.269456
vt 0.352431 0.317523
vt 0.345541 0.329214
vt 0.340351 0.305983
vt 0.489555 0.676893
vt 0.483815 0.707867
vt 0.465790 0.707867
vt 0.472889 0.669088
vt 0.507481 0.657196
vt 0.496006 0.642967
vt 0.531276 0.667108
vt 0.527464 0.654978
vt 0.542884 0.707867
vt 0.542904 0.707867
vt 0.531276 0.748626
vt 0.527465 0.760756
vt 0.507481 0.758539
vt 0.496006 0.772768
vt 0.489555 0.738841
vt 0.472889 0.746646
vt 0.428801 0.707867
vt 0.438298 0.658190
vt 0.468304 0.625672
vt 0.508094 0.641523
vt 0.527374 0.707867
vt 0.508094 0.774212
vt 0.468304 0.790062
vt 0.438298 0.757544
vt 0.338315 0.707867
vt 0.350134 0.646043
vt 0.387478 0.605573
vt 0.436998 0.625299
vt 0.460993 0.707867
vt 0.436999 0.790435
vt 0.387478 0.810162
vt 0.350134 0.769691
vt 0.350657 0.649218
vt 0.339445 0.707867
vt 0.485807 0.707867
vt 0.386083 0.610826
vt 0.433060 0.629539
vt 0.455822 0.707867
vt 0.433060 0.786195
vt 0.386083 0.804909
vt 0.350657 0.766516
vn 0.707107 0.000000 -0.707107
vn -0.000000 0.000000 -1.000000
vn -0.000000 0.000000 -1.000000
vn 0.707107 0.000000 -0.707107
vn -0.707107 0.000000 -0.707107
vn -0.707107 0.000000 -0.707107
vn -1.000000 0.000000 0.000000
vn -1.000000 0.000000 0.000000
vn -0.707106 0.000000 0.707107
vn -0.707106 0.000000 0.707107
vn 0.000000 0.000000 1.000000
vn 0.000000 0.000000 1.000000
vn 0.707106 0.000000 0.707107
vn 0.707106 0.000000 0.707107
vn 1.000000 0.000000 0.000000
vn 1.000000 0.000000 0.000000
vn 0.707099 0.002256 0.707111
vn 0.999998 0.002256 0.000000
vn 0.999091 -0.042635 0.000000
vn 0.706458 -0.042635 0.706470
vn 0.000000 0.002256 0.999998
vn 0.000000 -0.042634 0.999091
vn -0.707099 0.002256 0.707111
vn -0.706458 -0.042635 0.706470
vn -0.999998 0.002256 0.000000
vn -0.999091 -0.042635 -0.000000
vn -0.707105 0.002256 -0.707105
vn -0.706464 -0.042635 -0.706464
vn 0.000000 0.002256 -0.999998
vn -0.000000 -0.042634 -0.999091
vn 0.707105 0.002256 -0.707105
vn 0.706464 -0.042635 -0.706464
vn -0.000000 1.000000 0.000000
vn -0.000000 1.000000 0.000000
vn -0.000000 1.000000 0.000000
vn 0.000000 1.000000 0.000000
vn 0.000000 1.000000 0.000000
vn 0.000000 1.000000 0.000000
vn 0.000000 1.000000 -0.000000
vn 0.000000 1.000000 -0.000000
vn 0.000000 1.000000 -0.000000
vn 0.000000 1.000000 -0.000000
vn -0.000000 1.000000 -0.000000
vn 0.000000 1.000000 -0.000000
vn -0.000000 1.000000 -0.000000
vn -0.000000 1.000000 -0.000000
vn -0.000000 1.000000 0.000000
vn -0.000000 1.000000 0.000000
vn 0.637366 -0.770562 0.000000
vn 0.450683 -0.770564 0.450684
vn 0.000000 -0.770562 0.637365
vn -0.450683 -0.770564 0.450683
vn -0.637366 -0.770562 0.000000
vn -0.450683 -0.770564 -0.450683
vn -0.000000 -0.770560 -0.637367
vn 0.450683 -0.770564 -0.450684
vn 0.672361 -0.309614 0.672362
vn 0.950863 -0.309613 -0.000000
vn 0.996497 -0.083628 -0.000001
vn 0.704629 -0.083629 0.704630
vn -0.000000 -0.309613 0.950863
vn -0.000000 -0.083627 0.996497
vn -0.672361 -0.309614 0.672361
vn -0.704630 -0.083628 0.704630
vn -0.950863 -0.309613 0.000000
vn -0.996497 -0.083627 0.000001
vn -0.672362 -0.309613 -0.672361
vn -0.704630 -0.083628 -0.704630
vn 0.000000 -0.309611 -0.950863
vn 0.000000 -0.083627 -0.996497
vn 0.672361 -0.309613 -0.672362
vn 0.704629 -0.083629 -0.704630
vn 0.427707 -0.796324 -0.427709
vn 0.604874 -0.796321 0.000000
vn 0.427708 -0.796323 0.427711
vn -0.000000 -0.796320 0.604875
vn -0.427708 -0.796323 0.427710
vn -0.604874 -0.796321 0.000000
vn -0.427707 -0.796324 -0.427709
vn 0.000000 -0.796321 -0.604875
vn 0.000000 0.806253 0.591572
vn -0.418302 0.806254 0.418303
vn 0.418302 0.806255 0.418302
vn 0.591571 0.806253 0.000001
vn 0.418303 0.806255 -0.418301
vn -0.000000 0.806253 -0.591571
vn -0.418302 0.806254 -0.418303
vn -0.591571 0.806253 -0.000001
vn 0.000000 1.000000 0.000000
vn 0.539642 -0.646198 -0.539643
vn 0.000000 -0.646196 -0.763171
vn 0.763171 -0.646197 -0.000000
vn 0.539643 -0.646199 0.539642
vn -0.000000 -0.646198 0.763170
vn -0.539642 -0.646199 0.539641
vn -0.763170 -0.646197 -0.000000
vn -0.539642 -0.646198 -0.539643
vn 0.591728 0.387199 0.707061
vn 0.834210 0.551447 -0.000004
vn 0.824971 0.565176 -0.000001
vn 0.589513 0.402250 0.700478
vn 0.006324 -0.009333 0.999937
vn 0.006698 0.001209 0.999977
vn -0.579082 -0.405864 0.707063
vn -0.582947 -0.401225 0.706535
vn -0.821569 -0.570109 -0.000001
vn -0.824866 -0.565328 0.000000
vn -0.579088 -0.405863 -0.707059
vn -0.582953 -0.401228 -0.706528
vn 0.006326 -0.009326 -0.999937
vn 0.006699 0.001212 -0.999977
vn 0.591728 0.387203 -0.707059
vn 0.589516 0.402254 -0.700473
vn 0.747095 0.664718 -0.000000
vn 0.539087 0.476555 0.694464
vn 0.016756 0.011224 0.999797
vn -0.525808 -0.461852 0.714296
vn -0.753521 -0.657424 0.000000
vn -0.525813 -0.461856 -0.714289
vn 0.016757 0.011225 -0.999797
vn 0.539091 0.476559 -0.694458
vn 0.561507 0.827472 0.000000
vn 0.414515 0.608651 0.676552
vn 0.029510 0.044382 0.998579
vn -0.393475 -0.559344 0.729597
vn -0.577502 -0.816389 0.000000
vn -0.393479 -0.559349 -0.729591
vn 0.029511 0.044384 -0.998579
vn 0.414517 0.608654 -0.676547
vn 0.081534 0.996671 0.000000
vn 0.066499 0.746734 0.661790
vn 0.012760 0.078207 0.996855
vn -0.067761 -0.668347 0.740757
vn -0.108642 -0.994081 -0.000000
vn -0.067762 -0.668354 -0.740750
vn 0.012761 0.078211 -0.996855
vn 0.066500 0.746738 -0.661785
vn -0.456500 0.889723 -0.000000
vn -0.325613 0.649406 0.687204
vn -0.009005 0.041278 0.999107
vn 0.311281 -0.610837 0.727999
vn 0.446481 -0.894793 0.000000
vn 0.311284 -0.610843 -0.727992
vn -0.009005 0.041280 -0.999107
vn -0.325615 0.649410 -0.687198
vn -0.673469 0.739216 -0.000000
vn -0.489643 0.533115 0.689955
vn -0.024428 0.020776 0.999486
vn 0.468724 -0.509839 0.721362
vn 0.679667 -0.733521 0.000000
vn 0.468728 -0.509844 -0.721355
vn -0.024429 0.020777 -0.999486
vn -0.489646 0.533118 -0.689950
vn -0.601611 0.798790 -0.000000
vn -0.382034 0.614440 0.690300
vn 0.149425 0.159205 0.975872
vn 0.668566 -0.296594 0.681947
vn 0.876242 -0.481872 -0.000000
vn 0.668568 -0.296600 -0.681943
vn 0.149426 0.159207 -0.975871
vn -0.382039 0.614444 -0.690293
vn -0.083691 0.996492 0.000002
vn 0.048931 0.868016 0.494119
vn 0.401445 0.519599 0.754228
vn 0.809383 0.109389 0.577003
vn 0.996751 -0.080547 0.000001
vn 0.809385 0.109387 -0.577001
vn 0.401446 0.519602 -0.754225
vn 0.048925 0.868021 -0.494112
vn -0.301418 0.953492 0.000000
vn -0.169685 0.813934 0.555624
vn 0.218844 0.412182 0.884429
vn 0.710734 -0.087806 0.697960
vn 0.945728 -0.324958 0.000004
vn 0.710737 -0.087813 -0.697956
vn 0.218845 0.412180 -0.884429
vn -0.169688 0.813935 -0.555622
vn -0.551009 0.834499 -0.000000
vn -0.396685 0.677999 0.618836
vn 0.041857 0.235535 0.970964
vn 0.578716 -0.304402 0.756589
vn 0.830374 -0.557206 0.000007
vn 0.578718 -0.304406 -0.756586
vn 0.041857 0.235534 -0.970964
vn -0.396687 0.677999 -0.618835
vn -0.636018 0.771674 0.000000
vn -0.477942 0.614391 0.627770
vn -0.032073 0.169291 0.985044
vn 0.514026 -0.377626 0.770179
vn 0.771642 -0.636057 0.000006
vn 0.514029 -0.377629 -0.770176
vn -0.032071 0.169290 -0.985044
vn -0.477943 0.614391 -0.627769
vn -0.026115 -0.873427 -0.486255
vn 0.102367 -0.994747 -0.000000
vn -0.800771 -0.598971 0.000004
vn -0.379517 -0.536145 -0.754000
vn -0.801394 -0.128806 -0.584103
vn -0.998059 0.062273 -0.000002
vn -0.801396 -0.128801 0.584101
vn -0.379519 -0.536142 0.754001
vn -0.026112 -0.873427 0.486254
s 1
g pCylinder4
usemtl lambert10SG
f 17/10/1 18/11/2 19/12/3 20/13/4
f 18/11/2 21/14/5 22/15/6 19/12/3
f 21/14/5 23/16/7 24/17/8 22/15/6
f 23/16/7 25/18/9 26/19/10 24/17/8
f 25/18/9 27/20/11 28/21/12 26/19/10
f 27/20/11 29/22/13 30/23/14 28/21/12
f 29/22/13 31/24/15 32/25/16 30/23/14
f 31/24/15 17/10/1 20/13/4 32/25/16
s 2
f 10/26/17 9/27/18 33/28/19 34/29/20
f 11/30/21 10/26/17 34/29/20 35/31/22
f 12/32/23 11/30/21 35/31/22 36/33/24
f 13/34/25 12/32/23 36/33/24 37/35/26
f 14/36/27 13/34/25 37/35/26 38/37/28
f 15/38/29 14/36/27 38/37/28 39/39/30
f 16/40/31 15/38/29 39/39/30 40/41/32
f 9/27/18 16/40/31 40/41/32 33/28/19
s 3
f 15/38/33 16/40/34 20/13/35 19/12/36
f 14/36/37 15/38/33 19/12/36 22/15/38
f 13/34/39 14/36/37 22/15/38 24/17/40
f 12/32/41 13/34/39 24/17/40 26/19/42
f 11/30/43 12/32/41 26/19/42 28/21/44
f 10/26/45 11/30/43 28/21/44 30/23/46
f 9/27/47 10/26/45 30/23/46 32/25/48
f 16/40/34 9/27/47 32/25/48 20/13/35
s 2
f 34/29/20 33/28/19 50/42/49 51/43/50
f 35/31/22 34/29/20 51/43/50 52/44/51
f 36/33/24 35/31/22 52/44/51 53/45/52
f 37/35/26 36/33/24 53/45/52 54/55/53
f 38/37/28 37/35/26 54/55/53 55/56/54
f 39/39/30 38/37/28 55/56/54 56/57/55
f 40/41/32 39/39/30 56/57/55 49/58/56
f 33/28/19 40/41/32 49/58/56 50/42/49
f 42/1/57 41/2/58 8/3/59 7/4/60
f 43/5/61 42/1/57 7/4/60 6/6/62
f 44/7/63 43/5/61 6/6/62 5/8/64
f 45/9/65 44/7/63 5/8/64 4/46/66
f 46/47/67 45/9/65 4/46/66 3/48/68
f 47/49/69 46/47/67 3/48/68 2/50/70
f 48/51/71 47/49/69 2/50/70 1/52/72
f 41/2/58 48/51/71 1/52/72 8/3/59
f 50/42/49 49/58/56 67/59/73 68/60/74
f 51/43/50 50/42/49 68/60/74 69/61/75
f 52/44/51 51/43/50 69/61/75 70/62/76
f 53/45/52 52/44/51 70/62/76 71/63/77
f 54/55/53 53/45/52 71/63/77 72/89/78
f 55/56/54 54/55/53 72/89/78 73/88/79
f 56/57/55 55/56/54 73/88/79 66/87/80
f 49/58/56 56/57/55 66/87/80 67/59/73
f 1/52/72 2/50/70 58/53/81 57/54/82
f 2/50/70 3/48/68 59/64/83 58/53/81
f 3/48/68 4/46/66 60/65/84 59/64/83
f 4/46/66 5/8/64 61/66/85 60/65/84
f 5/8/64 6/6/62 62/67/86 61/66/85
f 6/6/62 7/4/60 63/68/87 62/67/86
f 7/4/60 8/3/59 64/69/88 63/68/87
f 8/3/59 1/52/72 57/54/82 64/69/88
f 57/54/82 58/53/81 65/70/89
f 58/53/81 59/64/83 65/70/89
f 59/64/83 60/65/84 65/70/89
f 60/65/84 61/66/85 65/70/89
f 61/66/85 62/67/86 65/70/89
f 62/67/86 63/68/87 65/70/89
f 63/68/87 64/69/88 65/70/89
f 64/69/88 57/54/82 65/70/89
f 75/71/90 67/72/73 66/73/80 74/74/91
f 76/75/92 68/76/74 67/72/73 75/71/90
f 77/77/93 69/78/75 68/76/74 76/75/92
f 78/79/94 70/80/76 69/78/75 77/77/93
f 79/81/95 71/82/77 70/80/76 78/79/94
f 80/83/96 72/84/78 71/82/77 79/81/95
f 81/85/97 73/86/79 72/84/78 80/83/96
f 74/74/91 66/73/80 73/86/79 81/85/97
f 75/71/90 74/74/91 47/49/69 48/51/71
f 76/75/92 75/71/90 48/51/71 41/2/58
f 77/77/93 76/75/92 41/2/58 42/1/57
f 78/79/94 77/77/93 42/1/57 43/5/61
f 79/81/95 78/79/94 43/5/61 44/7/63
f 80/83/96 79/81/95 44/7/63 45/9/65
f 81/85/97 80/83/96 45/9/65 46/47/67
f 74/74/91 81/85/97 46/47/67 47/49/69
s 5
f 83/90/98 82/91/99 90/92/100 91/93/101
f 84/94/102 83/90/98 91/93/101 92/95/103
f 85/96/104 84/94/102 92/95/103 93/97/105
f 86/98/106 85/96/104 93/97/105 94/99/107
f 87/100/108 86/98/106 94/99/107 95/101/109
f 88/102/110 87/100/108 95/101/109 96/103/111
f 89/104/112 88/102/110 96/103/111 97/105/113
f 82/91/99 89/104/112 97/105/113 90/92/100
f 91/93/101 90/92/100 98/106/114 99/107/115
f 92/95/103 91/93/101 99/107/115 100/108/116
f 93/97/105 92/95/103 100/108/116 101/109/117
f 94/99/107 93/97/105 101/109/117 102/110/118
f 95/101/109 94/99/107 102/110/118 103/111/119
f 96/103/111 95/101/109 103/111/119 104/112/120
f 97/105/113 96/103/111 104/112/120 105/113/121
f 90/92/100 97/105/113 105/113/121 98/106/114
f 99/107/115 98/106/114 106/114/122 107/115/123
f 100/108/116 99/107/115 107/115/123 108/116/124
f 101/109/117 100/108/116 108/116/124 109/117/125
f 102/110/118 101/109/117 109/117/125 110/118/126
f 103/111/119 102/110/118 110/118/126 111/119/127
f 104/112/120 103/111/119 111/119/127 112/120/128
f 105/113/121 104/112/120 112/120/128 113/121/129
f 98/106/114 105/113/121 113/121/129 106/114/122
f 107/115/123 106/114/122 114/122/130 115/123/131
f 108/116/124 107/115/123 115/123/131 116/124/132
f 109/117/125 108/116/124 116/124/132 117/125/133
f 110/118/126 109/117/125 117/125/133 118/126/134
f 111/119/127 110/118/126 118/126/134 119/127/135
f 112/120/128 111/119/127 119/127/135 120/128/136
f 113/121/129 112/120/128 120/128/136 121/129/137
f 106/114/122 113/121/129 121/129/137 114/122/130
f 115/123/131 114/122/130 122/130/138 123/131/139
f 116/124/132 115/123/131 123/131/139 124/132/140
f 117/125/133 116/124/132 124/132/140 125/133/141
f 118/126/134 117/125/133 125/133/141 126/134/142
f 119/127/135 118/126/134 126/134/142 127/135/143
f 120/128/136 119/127/135 127/135/143 128/136/144
f 121/129/137 120/128/136 128/136/144 129/137/145
f 114/122/130 121/129/137 129/137/145 122/130/138
f 123/131/139 122/130/138 130/138/146 131/139/147
f 124/132/140 123/131/139 131/139/147 132/140/148
f 125/133/141 124/132/140 132/140/148 133/141/149
f 126/134/142 125/133/141 133/141/149 134/142/150
f 127/135/143 126/134/142 134/142/150 135/143/151
f 128/136/144 127/135/143 135/143/151 136/144/152
f 129/137/145 128/136/144 136/144/152 137/145/153
f 122/130/138 129/137/145 137/145/153 130/138/146
f 131/139/147 130/138/146 138/146/154 139/147/155
f 132/140/148 131/139/147 139/147/155 140/148/156
f 133/141/149 132/140/148 140/148/156 141/149/157
f 134/142/150 133/141/149 141/149/157 142/150/158
f 135/143/151 134/142/150 142/150/158 143/151/159
f 136/144/152 135/143/151 143/151/159 144/152/160
f 137/145/153 136/144/152 144/152/160 145/153/161
f 130/138/146 137/145/153 145/153/161 138/146/154
f 139/147/155 138/146/154 146/154/162 147/155/163
f 140/148/156 139/147/155 147/155/163 148/156/164
f 141/149/157 140/148/156 148/156/164 149/157/165
f 142/150/158 141/149/157 149/157/165 150/158/166
f 143/151/159 142/150/158 150/158/166 151/159/167
f 144/152/160 143/151/159 151/159/167 152/160/168
f 145/153/161 144/152/160 152/160/168 153/161/169
f 138/146/154 145/153/161 153/161/169 146/154/162
f 147/162/163 146/163/162 154/164/170 155/165/171
f 148/166/164 147/162/163 155/165/171 156/167/172
f 149/168/165 148/166/164 156/167/172 157/169/173
f 150/170/166 149/168/165 157/169/173 158/171/174
f 151/172/167 150/170/166 158/171/174 159/173/175
f 152/174/168 151/172/167 159/173/175 160/175/176
f 153/176/169 152/174/168 160/175/176 161/177/177
f 146/163/162 153/176/169 161/177/177 154/164/170
f 155/165/171 154/164/170 162/178/178 163/179/179
f 156/167/172 155/165/171 163/179/179 164/180/180
f 157/169/173 156/167/172 164/180/180 165/181/181
f 158/171/174 157/169/173 165/181/181 166/182/182
f 159/173/175 158/171/174 166/182/182 167/183/183
f 160/175/176 159/173/175 167/183/183 168/184/184
f 161/177/177 160/175/176 168/184/184 169/185/185
f 154/164/170 161/177/177 169/185/185 162/178/178
f 163/179/179 162/178/178 186/186/186 179/187/187
f 164/180/180 163/179/179 179/187/187 180/188/188
f 165/181/181 164/180/180 180/188/188 181/189/189
f 166/182/182 165/181/181 181/189/189 182/190/190
f 167/183/183 166/182/182 182/190/190 183/191/191
f 168/184/184 167/183/183 183/191/191 184/192/192
f 169/185/185 168/184/184 184/192/192 185/193/193
f 162/178/178 169/185/185 185/193/193 186/186/186
f 171/194/194 170/195/195 178/196/196
f 172/197/197 171/194/194 178/196/196
f 173/198/198 172/197/197 178/196/196
f 174/199/199 173/198/198 178/196/196
f 175/200/200 174/199/199 178/196/196
f 176/201/201 175/200/200 178/196/196
f 177/202/202 176/201/201 178/196/196
f 170/195/195 177/202/202 178/196/196
f 180/188/188 179/187/187 171/194/194 172/197/197
f 181/189/189 180/188/188 172/197/197 173/198/198
f 182/190/190 181/189/189 173/198/198 174/199/199
f 183/191/191 182/190/190 174/199/199 175/200/200
f 184/192/192 183/191/191 175/200/200 176/201/201
f 185/193/193 184/192/192 176/201/201 177/202/202
f 186/186/186 185/193/193 177/202/202 170/195/195
f 179/187/187 186/186/186 170/195/195 171/194/194
