# This file uses centimeters as units for non-parametric coordinates.

mtllib BIL_Bookcase.mtl
g default
v 4.000000 -0.049992 -1.400000
v -4.000000 -0.049992 -1.400000
v 4.000000 3.483342 -1.400000
v -4.000000 3.483342 -1.400000
v 4.000000 7.016675 -1.400000
v -4.000000 7.016675 -1.400000
v 4.000000 10.550009 -1.400000
v -4.000000 10.550009 -1.400000
v 4.000000 10.550009 1.400000
v -4.000000 10.550009 1.400000
v 4.000000 7.016675 1.400000
v -4.000000 7.016675 1.400000
v 4.000000 3.483342 1.400000
v -4.000000 3.483342 1.400000
v 4.000000 -0.049992 1.400000
v -4.000000 -0.049992 1.400000
v 3.759404 10.550009 -1.400000
v 3.759404 10.550009 1.400000
v 3.759404 7.016675 1.400000
v 3.759404 3.483342 1.400000
v 3.759404 -0.049992 1.400000
v 3.759404 -0.049992 -1.400000
v 3.759404 3.483342 -1.400000
v 3.759404 7.016675 -1.400000
v -3.752619 10.550009 -1.400000
v -3.752619 10.550009 1.400000
v -3.752619 7.016675 1.400000
v -3.752619 3.483342 1.400000
v -3.752619 -0.049992 1.400000
v -3.752619 -0.049992 -1.400000
v -3.752619 3.483342 -1.400000
v -3.752619 7.016675 -1.400000
v 3.759404 9.896399 -1.400000
v 4.000000 9.896399 -1.400000
v 4.000000 9.896399 1.400000
v 3.759404 9.896399 1.400000
v -3.752619 9.896399 1.400000
v -4.000000 9.896399 1.400000
v -4.000000 9.896399 -1.400000
v -3.752619 9.896399 -1.400000
v 3.759404 6.778487 -1.400000
v 4.000000 6.778487 -1.400000
v 4.000000 6.778487 1.400000
v 3.759404 6.778487 1.400000
v -3.752619 6.778487 1.400000
v -4.000000 6.778487 1.400000
v -4.000000 6.778487 -1.400000
v -3.752619 6.778487 -1.400000
v 3.759404 3.739528 -1.400000
v 4.000000 3.739528 -1.400000
v 4.000000 3.739528 1.400000
v 3.759404 3.739528 1.400000
v -3.752619 3.739528 1.400000
v -4.000000 3.739528 1.400000
v -4.000000 3.739528 -1.400000
v -3.752619 3.739528 -1.400000
v 3.759404 0.491889 -1.400000
v 4.000000 0.491889 -1.400000
v 4.000000 0.491889 1.400000
v 3.759404 0.491889 1.400000
v -3.752619 0.491889 1.400000
v -4.000000 0.491889 1.400000
v -4.000000 0.491889 -1.400000
v -3.752619 0.491889 -1.400000
v 3.759404 0.728471 -1.400000
v 4.000000 0.728471 -1.400000
v 4.000000 0.728471 1.400000
v 3.759404 0.728471 1.400000
v -3.752619 0.728471 1.400000
v -4.000000 0.728471 1.400000
v -4.000000 0.728471 -1.400000
v -3.752619 0.728471 -1.400000
v -3.752619 0.491889 -1.046098
v 3.759404 0.491889 -1.046098
v 3.759404 -0.049992 -1.046098
v -3.752619 -0.049992 -1.046098
v -3.752619 9.896399 1.150430
v 3.759404 9.896399 1.150430
v 3.759404 7.016675 1.150430
v -3.752619 7.016675 1.150430
v -3.752619 6.778487 1.150430
v 3.759404 6.778487 1.150430
v 3.759404 3.739528 1.150430
v -3.752619 3.739528 1.150430
v 3.759404 0.728471 1.150430
v 3.759404 3.483342 1.150430
v -3.752619 0.728471 1.150430
v -3.752619 3.483342 1.150430
vt 0.186481 0.061185
vt 0.205339 0.061185
vt 0.205339 0.106051
vt 0.186481 0.106051
vt 0.186481 0.353728
vt 0.205339 0.353728
vt 0.205339 0.374939
vt 0.186481 0.374939
vt 0.186481 0.646271
vt 0.205339 0.646271
vt 0.205339 0.884699
vt 0.186481 0.884699
vt 0.186481 0.938815
vt 0.205339 0.938815
vt 0.205339 0.938815
vt 0.186481 0.938815
vt 0.186481 0.884699
vt 0.205339 0.884699
vt 0.205339 0.646271
vt 0.186481 0.646271
vt 0.186481 0.374939
vt 0.205339 0.374939
vt 0.205339 0.353728
vt 0.186481 0.353728
vt 0.186481 0.106051
vt 0.205339 0.106051
vt 0.205339 0.061185
vt 0.186481 0.061185
vt 0.813519 0.061185
vt 0.813519 0.061185
vt 0.813519 0.106051
vt 0.813519 0.106051
vt 0.813519 0.353728
vt 0.813519 0.353728
vt 0.813519 0.374939
vt 0.813519 0.374939
vt 0.813519 0.646271
vt 0.813519 0.646271
vt 0.813519 0.884699
vt 0.813519 0.884699
vt 0.794129 0.938815
vt 0.794129 0.938815
vt 0.794129 0.884699
vt 0.794129 0.646271
vt 0.794129 0.374939
vt 0.794129 0.353728
vt 0.794129 0.106051
vt 0.794129 0.061185
vt 0.794129 0.061185
vt 0.794129 0.106051
vt 0.205339 0.106051
vt 0.205339 0.061185
vt 0.794129 0.061185
vt 0.794129 0.374939
vt 0.794129 0.353728
vt 0.794129 0.884699
vt 0.205339 0.884699
vt 0.205339 0.646271
vt 0.794129 0.646271
vt 0.813519 0.938815
vt 0.813519 0.938815
vt 0.794129 0.106051
vt 0.794129 0.884699
vt 0.794129 0.646271
vt 0.186481 0.626551
vt 0.205339 0.626551
vt 0.186481 0.626551
vt 0.205339 0.626551
vt 0.794129 0.626551
vt 0.813519 0.626551
vt 0.813519 0.626551
vt 0.794129 0.626551
vt 0.794129 0.626551
vt 0.205339 0.626551
vt 0.205339 0.374939
vt 0.794129 0.374939
vt 0.205339 0.125638
vt 0.186481 0.125638
vt 0.186481 0.125638
vt 0.205339 0.125638
vt 0.794129 0.125638
vt 0.813519 0.125638
vt 0.813519 0.125638
vt 0.794129 0.125638
vt 0.205339 0.353728
vt 0.205339 0.125638
vt 0.794129 0.125638
vt 0.794129 0.353728
vt 0.086202 0.014617
vt 0.377248 0.014617
vt 0.377248 0.061567
vt 0.086202 0.061567
vt 0.086202 0.320757
vt 0.377248 0.320757
vt 0.377248 0.342954
vt 0.086202 0.342954
vt 0.086202 0.626897
vt 0.377248 0.626897
vt 0.377248 0.876405
vt 0.086202 0.876405
vt 0.377248 0.014617
vt 0.086202 0.014617
vt 0.086202 0.061567
vt 0.377248 0.061567
vt 0.377248 0.320757
vt 0.086202 0.320757
vt 0.086202 0.342954
vt 0.377248 0.342954
vt 0.377248 0.626897
vt 0.086202 0.626897
vt 0.086202 0.876405
vt 0.377248 0.876405
vt 0.086202 0.933037
vt 0.377248 0.933037
vt 0.377248 0.933037
vt 0.086202 0.933037
vt 0.377248 0.606259
vt 0.086202 0.606259
vt 0.086202 0.606259
vt 0.377248 0.606259
vt 0.086202 0.082066
vt 0.377248 0.082066
vt 0.377248 0.082066
vt 0.086202 0.082066
vt 0.086202 0.061567
vt 0.086202 0.014617
vt 0.122989 0.014617
vt 0.122989 0.061567
vt 0.086202 0.014617
vt 0.086202 0.061567
vt 0.122989 0.061567
vt 0.122989 0.014617
vt 0.086202 0.876405
vt 0.086202 0.626897
vt 0.351307 0.626897
vt 0.351307 0.876405
vt 0.086202 0.626897
vt 0.086202 0.876405
vt 0.351307 0.876405
vt 0.351307 0.626897
vt 0.086202 0.606259
vt 0.086202 0.342954
vt 0.351307 0.342954
vt 0.351307 0.606259
vt 0.086202 0.342954
vt 0.086202 0.606259
vt 0.351307 0.606259
vt 0.351307 0.342954
vt 0.086202 0.320757
vt 0.086202 0.082066
vt 0.351307 0.082066
vt 0.351307 0.320757
vt 0.086202 0.082066
vt 0.086202 0.320757
vt 0.351307 0.320757
vt 0.351307 0.082066
vt 0.351526 0.907152
vt 0.351526 0.883450
vt 0.609214 0.883450
vt 0.609214 0.907152
vt 0.351526 0.143391
vt 0.609214 0.143391
vt 0.351526 0.119020
vt 0.609214 0.119020
vt 0.351526 0.143391
vt 0.351526 0.883450
vt 0.586246 0.883450
vt 0.586246 0.143391
vt 0.351526 0.883450
vt 0.351526 0.143391
vt 0.586246 0.143391
vt 0.586246 0.883450
vt 0.351526 0.143391
vt 0.351526 0.883450
vt 0.586246 0.883450
vt 0.586246 0.143391
vt 0.351526 0.883450
vt 0.351526 0.143391
vt 0.586246 0.143391
vt 0.586246 0.883450
vt 0.351526 0.883450
vt 0.351526 0.143391
vt 0.586246 0.143391
vt 0.586246 0.883450
vt 0.351526 0.143391
vt 0.351526 0.883450
vt 0.586246 0.883450
vt 0.586246 0.143391
vn 0.000000 0.000000 -1.000000
vn 0.000000 0.000000 -1.000000
vn 0.000000 0.000000 -1.000000
vn 0.000000 0.000000 -1.000000
vn 0.000000 0.000000 -1.000000
vn 0.000000 0.000000 -1.000000
vn 0.000000 0.000000 -1.000000
vn 0.000000 0.000000 -1.000000
vn 0.000000 0.000000 -1.000000
vn 0.000000 0.000000 -1.000000
vn 0.000000 0.000000 -1.000000
vn 0.000000 0.000000 -1.000000
vn 0.000000 1.000000 0.000000
vn 0.000000 1.000000 0.000000
vn 0.000000 1.000000 0.000000
vn 0.000000 1.000000 0.000000
vn 0.000000 0.000000 1.000000
vn 0.000000 0.000000 1.000000
vn 0.000000 0.000000 1.000000
vn 0.000000 0.000000 1.000000
vn 0.000000 0.000000 1.000000
vn 0.000000 0.000000 1.000000
vn 0.000000 0.000000 1.000000
vn 0.000000 0.000000 1.000000
vn 0.000000 0.000000 1.000000
vn 0.000000 0.000000 1.000000
vn 0.000000 0.000000 1.000000
vn 0.000000 0.000000 1.000000
vn -1.000000 0.000000 0.000000
vn -1.000000 0.000000 0.000000
vn -1.000000 0.000000 0.000000
vn -1.000000 0.000000 0.000000
vn -1.000000 0.000000 0.000000
vn -1.000000 0.000000 0.000000
vn -1.000000 0.000000 0.000000
vn -1.000000 0.000000 0.000000
vn -1.000000 0.000000 0.000000
vn -1.000000 0.000000 0.000000
vn -1.000000 0.000000 0.000000
vn -1.000000 0.000000 0.000000
vn 1.000000 0.000000 0.000000
vn 1.000000 0.000000 0.000000
vn 1.000000 0.000000 0.000000
vn 1.000000 0.000000 0.000000
vn 1.000000 0.000000 0.000000
vn 1.000000 0.000000 0.000000
vn 1.000000 0.000000 0.000000
vn 1.000000 0.000000 0.000000
vn 1.000000 0.000000 0.000000
vn 1.000000 0.000000 0.000000
vn 1.000000 0.000000 0.000000
vn 1.000000 0.000000 0.000000
vn 0.000000 1.000000 0.000000
vn 0.000000 1.000000 0.000000
vn 0.000000 0.000000 1.000000
vn 0.000000 0.000000 1.000000
vn 0.000000 0.000000 1.000000
vn 0.000000 0.000000 1.000000
vn 0.000000 0.000000 1.000000
vn 0.000000 0.000000 1.000000
vn 0.000000 0.000000 -1.000000
vn 0.000000 0.000000 -1.000000
vn 0.000000 0.000000 -1.000000
vn 0.000000 0.000000 -1.000000
vn 0.000000 0.000000 -1.000000
vn 0.000000 0.000000 -1.000000
vn 0.000000 0.000000 -1.000000
vn 0.000000 0.000000 -1.000000
vn 0.000000 0.000000 -1.000000
vn 0.000000 0.000000 -1.000000
vn 0.000000 1.000000 0.000000
vn 0.000000 1.000000 0.000000
vn 0.000000 0.000000 1.000000
vn 0.000000 0.000000 1.000000
vn 0.000000 0.000000 1.000000
vn 0.000000 0.000000 1.000000
vn 0.000000 0.000000 1.000000
vn 0.000000 0.000000 1.000000
vn 0.000000 0.000000 -1.000000
vn 0.000000 0.000000 -1.000000
vn 0.000000 0.000000 -1.000000
vn 0.000000 0.000000 -1.000000
vn 0.000000 0.000000 -1.000000
vn 0.000000 0.000000 -1.000000
vn 0.000000 0.000000 -1.000000
vn 0.000000 0.000000 -1.000000
vn 0.000000 0.000000 -1.000000
vn 0.000000 0.000000 -1.000000
vn 0.000000 0.000000 -1.000000
vn 0.000000 0.000000 -1.000000
vn 1.000000 0.000000 0.000000
vn 1.000000 0.000000 0.000000
vn 0.000000 0.000000 1.000000
vn 0.000000 0.000000 1.000000
vn 0.000000 0.000000 1.000000
vn 0.000000 0.000000 1.000000
vn -1.000000 0.000000 0.000000
vn -1.000000 0.000000 0.000000
vn 0.000000 0.000000 -1.000000
vn 0.000000 0.000000 -1.000000
vn 0.000000 0.000000 -1.000000
vn 0.000000 0.000000 -1.000000
vn 1.000000 0.000000 0.000000
vn 1.000000 0.000000 0.000000
vn 0.000000 0.000000 1.000000
vn 0.000000 0.000000 1.000000
vn 0.000000 0.000000 1.000000
vn 0.000000 0.000000 1.000000
vn -1.000000 0.000000 0.000000
vn -1.000000 0.000000 0.000000
vn 0.000000 0.000000 -1.000000
vn 0.000000 0.000000 -1.000000
vn 0.000000 0.000000 -1.000000
vn 0.000000 0.000000 -1.000000
vn 0.000000 0.000000 -1.000000
vn 0.000000 0.000000 -1.000000
vn 0.000000 0.000000 -1.000000
vn 0.000000 0.000000 -1.000000
vn 1.000000 0.000000 0.000000
vn 1.000000 0.000000 0.000000
vn 0.000000 0.000000 1.000000
vn 0.000000 0.000000 1.000000
vn 0.000000 0.000000 1.000000
vn 0.000000 0.000000 1.000000
vn -1.000000 0.000000 0.000000
vn -1.000000 0.000000 0.000000
vn 0.000000 0.000000 -1.000000
vn 0.000000 0.000000 -1.000000
vn 0.000000 0.000000 -1.000000
vn 0.000000 0.000000 -1.000000
vn 0.000000 0.000000 -1.000000
vn 0.000000 0.000000 -1.000000
vn 0.000000 -1.000000 0.000000
vn 0.000000 -1.000000 0.000000
vn 0.000000 -1.000000 0.000000
vn 0.000000 -1.000000 0.000000
vn -1.000000 0.000000 0.000000
vn -1.000000 0.000000 0.000000
vn -1.000000 0.000000 0.000000
vn -1.000000 0.000000 0.000000
vn 1.000000 0.000000 0.000000
vn 1.000000 0.000000 0.000000
vn 1.000000 0.000000 0.000000
vn 1.000000 0.000000 0.000000
vn 0.000000 -1.000000 0.000000
vn 0.000000 -1.000000 0.000000
vn 0.000000 -1.000000 0.000000
vn 0.000000 -1.000000 0.000000
vn -1.000000 0.000000 0.000000
vn -1.000000 0.000000 0.000000
vn -1.000000 0.000000 0.000000
vn -1.000000 0.000000 0.000000
vn 0.000000 1.000000 0.000000
vn 0.000000 1.000000 0.000000
vn 0.000000 1.000000 0.000000
vn 0.000000 1.000000 0.000000
vn 1.000000 0.000000 0.000000
vn 1.000000 0.000000 0.000000
vn 1.000000 0.000000 0.000000
vn 1.000000 0.000000 0.000000
vn 0.000000 -1.000000 0.000000
vn 0.000000 -1.000000 0.000000
vn 0.000000 -1.000000 0.000000
vn 0.000000 -1.000000 0.000000
vn -1.000000 0.000000 0.000000
vn -1.000000 0.000000 0.000000
vn -1.000000 0.000000 0.000000
vn -1.000000 0.000000 0.000000
vn 0.000000 1.000000 0.000000
vn 0.000000 1.000000 0.000000
vn 0.000000 1.000000 0.000000
vn 0.000000 1.000000 0.000000
vn 1.000000 0.000000 0.000000
vn 1.000000 0.000000 0.000000
vn 1.000000 0.000000 0.000000
vn 1.000000 0.000000 0.000000
vn -1.000000 0.000000 0.000000
vn -1.000000 0.000000 0.000000
vn -1.000000 0.000000 0.000000
vn -1.000000 0.000000 0.000000
vn 0.000000 1.000000 0.000000
vn 0.000000 1.000000 0.000000
vn 0.000000 1.000000 0.000000
vn 0.000000 1.000000 0.000000
vn 1.000000 0.000000 0.000000
vn 1.000000 0.000000 0.000000
vn 1.000000 0.000000 0.000000
vn 1.000000 0.000000 0.000000
vn 0.000000 -1.000000 0.000000
vn 0.000000 -1.000000 0.000000
vn 0.000000 -1.000000 0.000000
vn 0.000000 -1.000000 0.000000
s 1
g pCube1
usemtl lambert6SG
f 1/1/1 22/2/2 57/3/3 58/4/4
f 3/5/5 23/6/6 49/7/7 50/8/8
f 5/9/9 24/10/10 33/11/11 34/12/12
s 4
f 7/157/13 17/158/14 18/159/15 9/160/16
s 5
f 35/17/17 36/18/18 19/19/19 11/20/20
f 51/21/21 52/22/22 20/23/23 13/24/24
f 59/25/25 60/26/26 21/27/27 15/28/28
s 8
f 2/89/29 16/90/30 62/91/31 63/92/32
f 4/93/33 14/94/34 54/95/35 55/96/36
f 6/97/37 12/98/38 38/99/39 39/100/40
s 11
f 15/101/41 1/102/42 58/103/43 59/104/44
f 13/105/45 3/106/46 50/107/47 51/108/48
f 11/109/49 5/110/50 34/111/51 35/112/52
s 4
f 17/158/14 25/161/53 26/162/54 18/159/15
s 5
f 19/19/19 36/18/18 37/43/55 27/44/56
f 20/23/23 52/22/22 53/45/57 28/46/58
f 21/27/27 60/26/26 61/47/59 29/48/60
s off
f 73/50/61 74/51/62 75/52/63 76/53/64
s 1
f 56/54/65 49/7/7 23/6/6 31/55/66
s off
f 77/56/67 78/57/68 79/58/69 80/59/70
s 4
f 25/161/53 8/163/71 10/164/72 26/162/54
s 5
f 27/44/56 37/43/55 38/39/73 12/38/74
f 28/46/58 53/45/57 54/35/75 14/34/76
f 29/48/60 61/47/59 62/31/77 16/30/78
s 1
f 64/62/79 30/49/80 2/29/81 63/32/82
f 56/54/65 31/55/66 4/33/83 55/36/84
f 40/63/85 32/64/86 6/37/87 39/40/88
f 34/12/12 33/11/11 17/14/89 7/13/90
s 11
f 35/112/52 34/111/51 7/113/91 9/114/92
s 5
f 9/16/93 18/15/94 36/18/18 35/17/17
f 37/43/55 36/18/18 18/15/94 26/42/95
f 38/39/73 37/43/55 26/42/95 10/61/96
s 8
f 39/100/40 38/99/39 10/115/97 8/116/98
s 1
f 25/41/99 40/63/85 39/40/88 8/60/100
f 17/14/89 33/11/11 40/63/85 25/41/99
f 42/65/101 41/66/102 24/10/10 5/9/9
s 11
f 43/117/103 42/118/104 5/110/50 11/109/49
s 5
f 11/20/20 19/19/19 44/68/105 43/67/106
f 45/69/107 44/68/105 19/19/19 27/44/56
f 46/70/108 45/69/107 27/44/56 12/38/74
s 8
f 47/119/109 46/120/110 12/98/38 6/97/37
s 1
f 32/64/86 48/72/111 47/71/112 6/37/87
f 24/10/10 41/66/102 48/72/111 32/64/86
f 50/8/8 49/7/7 41/66/102 42/65/101
s 11
f 51/108/48 50/107/47 42/118/104 43/117/103
s 5
f 43/67/106 44/68/105 52/22/22 51/21/21
f 53/45/57 52/22/22 44/68/105 45/69/107
f 54/35/75 53/45/57 45/69/107 46/70/108
s 8
f 55/96/36 54/95/35 46/120/110 47/119/109
s 1
f 48/72/111 56/54/65 55/36/84 47/71/112
s off
f 81/73/113 82/74/114 83/75/115 84/76/116
s 1
f 58/4/4 57/3/3 65/77/117 66/78/118
s 11
f 59/104/44 58/103/43 66/121/119 67/122/120
s 5
f 67/79/121 68/80/122 60/26/26 59/25/25
f 61/47/59 60/26/26 68/80/122 69/81/123
f 62/31/77 61/47/59 69/81/123 70/82/124
s 8
f 63/92/32 62/91/31 70/123/125 71/124/126
s 1
f 72/84/127 64/62/79 63/32/82 71/83/128
f 72/84/127 65/77/117 57/3/3 64/62/79
f 66/78/118 65/77/117 23/6/6 3/5/5
s 11
f 67/122/120 66/121/119 3/106/46 13/105/45
s 5
f 13/24/24 20/23/23 68/80/122 67/79/121
f 69/81/123 68/80/122 20/23/23 28/46/58
f 70/82/124 69/81/123 28/46/58 14/34/76
s 8
f 71/124/126 70/123/125 14/94/34 4/93/33
s 1
f 31/55/66 72/84/127 71/83/128 4/33/83
s off
f 86/85/129 85/86/130 87/87/131 88/88/132
f 64/62/133 57/3/134 74/51/135 73/50/136
f 57/125/137 22/126/138 75/127/139 74/128/140
f 30/129/141 64/130/142 73/131/143 76/132/144
f 40/165/145 33/166/146 78/167/147 77/168/148
f 33/133/149 24/134/150 79/135/151 78/136/152
f 24/169/153 32/170/154 80/171/155 79/172/156
f 32/137/157 40/138/158 77/139/159 80/140/160
f 48/173/161 41/174/162 82/175/163 81/176/164
f 41/141/165 49/142/166 83/143/167 82/144/168
f 49/177/169 56/178/170 84/179/171 83/180/172
f 56/145/173 48/146/174 81/147/175 84/148/176
f 23/149/177 65/150/178 85/151/179 86/152/180
f 65/181/181 72/182/182 87/183/183 85/184/184
f 72/153/185 31/154/186 88/155/187 87/156/188
f 31/185/189 23/186/190 86/187/191 88/188/192
